<svg width="252" height="69" viewBox="0 0 252 69" fill="none" xmlns="http://www.w3.org/2000/svg">
<path d="M36.844 65.9143C55.292 65.9143 70.247 51.9759 70.247 34.7821C70.247 17.5883 55.292 3.64993 36.844 3.64993C18.396 3.64993 3.44101 17.5883 3.44101 34.7821C3.44101 51.9759 18.396 65.9143 36.844 65.9143Z" stroke="#5C372B" stroke-width="6"/>
<path d="M68.8856 23.9395H82.5893" stroke="#5C372B" stroke-width="6"/>
<path d="M70.6682 30.7928L82.2551 30.8966" stroke="#5C372B" stroke-width="6"/>
<path d="M71.1138 39.7229L82.4779 39.8268" stroke="#5C372B" stroke-width="6"/>
<path d="M68.7742 46.7839L82.4779 46.8878" stroke="#5C372B" stroke-width="6"/>
<path d="M82.458 7.46803L82.6943 63.6381" stroke="#5C372B" stroke-width="6"/>
<path fill-rule="evenodd" clip-rule="evenodd" d="M40.5032 30.637C40.5032 30.637 31.4509 36.9971 29.5569 38.6586C27.6629 40.32 17.5801 48.3675 19.7526 50.8077C21.9252 53.2479 42.3972 32.0389 42.3972 32.0389C42.3972 32.0389 44.6812 34.0897 48.2185 32.6879C51.7559 31.286 56.3517 21.9925 54.4855 19.6042C52.6193 17.2159 41.3667 21.006 39.5562 24.7182C37.7458 28.4305 40.5032 30.637 40.5032 30.637V30.637Z" fill="#5C372B"/>
<path fill-rule="evenodd" clip-rule="evenodd" d="M34.9604 31.4158C34.9604 31.4158 42.1744 36.6856 44.1241 38.5028C46.0739 40.32 57.8836 48.7309 55.154 51.5605C52.4244 54.3901 33.15 33.0253 33.15 33.0253C33.15 33.0253 31.6181 34.7646 30.1697 34.4531C28.7213 34.1416 17.5244 24.3029 18.6663 23.3164C19.8083 22.33 25.9082 30.1438 27.3565 29.1054C28.8049 28.067 20.1704 21.7329 21.3124 20.6685C22.4544 19.6042 28.6656 27.8074 30.309 26.2499C31.9523 24.6923 22.8165 19.0331 24.4319 17.8909C26.0474 16.7486 37.0773 27.5998 36.4088 29.4948C35.7403 31.3899 34.9604 31.4158 34.9604 31.4158V31.4158Z" fill="#5C372B"/>
<path d="M26.7207 15.0308C26.7207 15.0308 30.1476 12.2774 37.4742 12.5711C44.8008 12.8648 47.3218 14.9574 47.3218 14.9574" stroke="#5C372B" stroke-width="2"/>
<path d="M24.1542 53.9781C24.1542 53.9781 30.8121 57.3546 38.1387 57.0609C45.4653 56.7672 50.4374 53.6362 50.4374 53.6362" stroke="#5C372B" stroke-width="2"/>
<path d="M15.3763 25.2369C15.3763 25.2369 14.3915 27.4763 14.0764 28.6878C13.7613 29.8994 13.4462 31.6248 13.4462 31.6248" stroke="#5C372B" stroke-width="2"/>
<path d="M13.9582 40.6561C13.9582 40.6561 14.3127 43.2994 15.1399 44.6578C15.9671 46.0161 17.5427 47.7416 17.5427 47.7416" stroke="#5C372B" stroke-width="2"/>
<path d="M56.8149 47.3745C56.8149 47.3745 58.5087 45.649 59.2965 44.1071C60.0843 42.5652 60.4782 40.4725 60.4782 40.4725" stroke="#5C372B" stroke-width="2"/>
<path d="M60.5964 31.2577C60.5964 31.2577 60.3994 29.0183 59.7692 27.6599C59.1389 26.3015 57.9178 24.2089 57.9178 24.2089" stroke="#5C372B" stroke-width="2"/>
<path d="M12.6779 37.8019C13.8778 37.8019 14.8504 36.936 14.8504 35.8679C14.8504 34.7998 13.8778 33.9339 12.6779 33.9339C11.478 33.9339 10.5054 34.7998 10.5054 35.8679C10.5054 36.936 11.478 37.8019 12.6779 37.8019Z" stroke="#5C372B" stroke-width="2"/>
<path d="M61.5323 37.711C62.7322 37.711 63.7049 36.8452 63.7049 35.7771C63.7049 34.7089 62.7322 33.8431 61.5323 33.8431C60.3325 33.8431 59.3598 34.7089 59.3598 35.7771C59.3598 36.8452 60.3325 37.711 61.5323 37.711Z" stroke="#5C372B" stroke-width="2"/>
<path d="M102.232 10.1113L102.39 36.9849" stroke="#5C372B" stroke-width="4"/>
<path d="M96.8749 36.9849C96.8749 36.9849 119.564 39.9219 119.249 29.3487C118.933 18.7755 103.335 21.4188 103.335 21.4188" stroke="#5C372B" stroke-width="4"/>
<path d="M96.7173 9.96448L119.406 9.52393L119.564 14.2231" stroke="#5C372B" stroke-width="4"/>
<path d="M123.503 18.1881H132.799" stroke="#5C372B" stroke-width="4"/>
<path d="M126.654 18.7755L136.108 37.4254" stroke="#5C372B" stroke-width="4"/>
<path d="M139.101 17.6007L146.507 17.8944" stroke="#5C372B" stroke-width="4"/>
<path d="M142.41 18.1881C142.41 18.1881 135.635 44.3274 130.12 45.5022C124.606 46.677 124.606 41.9778 124.606 41.9778" stroke="#5C372B" stroke-width="4"/>
<path d="M161.364 12.8007H166.563L166.721 44.5203L161.048 44.6671L172.393 44.5203" stroke="#5C372B" stroke-width="4"/>
<path d="M166.611 21.6911C166.611 21.6911 168.738 16.2569 174.308 16.4646C179.879 16.6723 182.442 20.9816 182.274 27.6273C182.107 34.2729 178.821 36.4016 173.807 36.4535C168.794 36.5054 166.732 30.8462 166.732 30.8462" stroke="#5C372B" stroke-width="4"/>
<path d="M166.675 22.0869C166.675 22.0869 164.548 16.6527 158.978 16.8604C153.407 17.0681 150.844 21.3774 151.012 28.023C151.179 34.6687 154.465 36.7974 159.479 36.8493C164.493 36.9012 166.554 31.242 166.554 31.242" stroke="#5C372B" stroke-width="4"/>
<path d="M192.475 26.3382L216.897 26.6687C216.897 26.6687 217.606 14.7004 205.277 15.1042C192.948 15.5081 189.22 28.0941 193.617 34.5618C197.911 40.8764 200.826 40.5093 205.553 40.6561C210.122 40.7981 214.494 38.3799 215.4 36.581C216.306 34.7821 216.267 33.8276 216.267 33.8276" stroke="#5C372B" stroke-width="4"/>
<path d="M224.252 21.7629V14.2735L249.935 15.0078L249.777 21.7629" stroke="#5C372B" stroke-width="4"/>
<path d="M235.912 15.1546L236.069 40.1191" stroke="#5C372B" stroke-width="4"/>
<path d="M229.924 39.8254L241.426 39.5317" stroke="#5C372B" stroke-width="4"/>
<path d="M98.917 56.6611L101.344 61.0635L103.75 56.6611H103.244C102.925 56.6611 102.766 56.5654 102.766 56.374C102.766 56.1781 102.925 56.0801 103.244 56.0801H104.714C105.033 56.0801 105.192 56.1781 105.192 56.374C105.192 56.5654 105.033 56.6611 104.714 56.6611H104.393L101.07 62.7383C100.792 63.2441 100.526 63.5951 100.271 63.791C100.015 63.9915 99.7259 64.0918 99.4023 64.0918C99.1562 64.0918 98.9352 64.0667 98.7393 64.0166C98.5479 63.971 98.4202 63.9141 98.3564 63.8457C98.2926 63.7773 98.2607 63.6429 98.2607 63.4424V62.6494C98.2607 62.3395 98.3564 62.1846 98.5479 62.1846C98.7393 62.1846 98.835 62.3281 98.835 62.6152V63.4561C99.0036 63.4971 99.1608 63.5176 99.3066 63.5176C99.5801 63.5176 99.7988 63.4515 99.9629 63.3193C100.132 63.1872 100.332 62.9069 100.564 62.4785L101.002 61.6787L98.2607 56.6611H97.9189C97.5999 56.6611 97.4404 56.5654 97.4404 56.374C97.4404 56.1781 97.5999 56.0801 97.9189 56.0801H99.4434C99.7624 56.0801 99.9219 56.1781 99.9219 56.374C99.9219 56.5654 99.7624 56.6611 99.4434 56.6611H98.917ZM112.172 56.6611V61.4258H112.746C113.065 61.4258 113.225 61.5215 113.225 61.7129C113.225 61.9043 113.065 62 112.746 62H111.03C110.711 62 110.552 61.9043 110.552 61.7129C110.552 61.5215 110.711 61.4258 111.03 61.4258H111.598V56.6611H108.774V59.9629C108.774 60.7604 108.601 61.3369 108.255 61.6924C107.909 62.0479 107.46 62.2256 106.908 62.2256C106.68 62.2256 106.457 62.1982 106.238 62.1436C106.02 62.0889 105.89 62.0319 105.849 61.9727C105.808 61.9089 105.787 61.7835 105.787 61.5967V61.0293C105.787 60.7422 105.89 60.5986 106.095 60.5986C106.272 60.5986 106.361 60.7308 106.361 60.9951V61.5557C106.571 61.6058 106.758 61.6309 106.922 61.6309C107.77 61.6309 108.193 61.0749 108.193 59.9629V56.6611H107.441C107.122 56.6611 106.963 56.5654 106.963 56.374C106.963 56.1781 107.122 56.0801 107.441 56.0801H112.746C113.065 56.0801 113.225 56.1781 113.225 56.374C113.225 56.5654 113.065 56.6611 112.746 56.6611H112.172ZM117.928 60.3525H118.174C118.429 60.3525 118.648 60.4437 118.83 60.626C119.012 60.8037 119.104 61.0202 119.104 61.2754C119.104 61.5397 119.01 61.7607 118.823 61.9385C118.641 62.1162 118.424 62.2051 118.174 62.2051H117.928C117.673 62.2051 117.454 62.1162 117.271 61.9385C117.089 61.7562 116.998 61.5374 116.998 61.2822C116.998 61.0179 117.089 60.7969 117.271 60.6191C117.458 60.4414 117.677 60.3525 117.928 60.3525ZM136.761 54.5762H132.953V61.4258H133.726C133.981 61.4258 134.108 61.5215 134.108 61.7129C134.108 61.9043 133.981 62 133.726 62H131.729C131.474 62 131.347 61.9043 131.347 61.7129C131.347 61.5215 131.474 61.4258 131.729 61.4258H132.379V54.5762H131.729C131.474 54.5762 131.347 54.4805 131.347 54.2891C131.347 54.0977 131.474 54.002 131.729 54.002H137.991C138.246 54.002 138.374 54.0977 138.374 54.2891C138.374 54.4805 138.246 54.5762 137.991 54.5762H137.342V61.4258H137.991C138.246 61.4258 138.374 61.5215 138.374 61.7129C138.374 61.9043 138.246 62 137.991 62H135.995C135.74 62 135.612 61.9043 135.612 61.7129C135.612 61.5215 135.74 61.4258 135.995 61.4258H136.761V54.5762ZM141.108 56.0801V57.126C141.45 56.7113 141.817 56.3991 142.209 56.1895C142.601 55.9798 143.063 55.875 143.597 55.875C144.162 55.875 144.684 56.0072 145.162 56.2715C145.641 56.5358 146.01 56.9049 146.27 57.3789C146.534 57.8483 146.666 58.3428 146.666 58.8623C146.666 59.6872 146.37 60.3936 145.777 60.9814C145.189 61.5648 144.465 61.8564 143.604 61.8564C142.578 61.8564 141.746 61.4395 141.108 60.6055V64.0645H142.503C142.64 64.0645 142.738 64.0895 142.797 64.1396C142.856 64.1943 142.886 64.265 142.886 64.3516C142.886 64.4336 142.856 64.502 142.797 64.5566C142.738 64.6113 142.64 64.6387 142.503 64.6387H139.762C139.625 64.6387 139.527 64.6113 139.468 64.5566C139.409 64.5065 139.379 64.4382 139.379 64.3516C139.379 64.265 139.409 64.1943 139.468 64.1396C139.527 64.0895 139.625 64.0645 139.762 64.0645H140.534V56.6611H139.762C139.625 56.6611 139.527 56.6338 139.468 56.5791C139.409 56.5244 139.379 56.4538 139.379 56.3672C139.379 56.2852 139.409 56.2168 139.468 56.1621C139.527 56.1074 139.625 56.0801 139.762 56.0801H141.108ZM146.085 58.8623C146.085 58.2015 145.843 57.6364 145.36 57.167C144.882 56.693 144.296 56.4561 143.604 56.4561C142.906 56.4561 142.316 56.693 141.833 57.167C141.35 57.641 141.108 58.2061 141.108 58.8623C141.108 59.5231 141.35 60.0905 141.833 60.5645C142.316 61.0384 142.906 61.2754 143.604 61.2754C144.292 61.2754 144.877 61.0407 145.36 60.5713C145.843 60.0973 146.085 59.5277 146.085 58.8623ZM153.393 59.6279H151.738C150.421 60.1657 149.672 60.9564 149.489 62H148.696C148.482 62 148.375 61.9043 148.375 61.7129C148.375 61.5215 148.482 61.4258 148.696 61.4258H149.045C149.341 60.5781 149.981 59.9378 150.966 59.5049C149.909 59.2816 149.38 58.6982 149.38 57.7549C149.38 57.2627 149.544 56.8617 149.872 56.5518C150.205 56.2373 150.72 56.0801 151.417 56.0801H154.589C154.803 56.0801 154.91 56.1781 154.91 56.374C154.91 56.5654 154.803 56.6611 154.589 56.6611H153.974V61.4258H154.589C154.803 61.4258 154.91 61.5215 154.91 61.7129C154.91 61.9043 154.803 62 154.589 62H152.552C152.338 62 152.23 61.9043 152.23 61.7129C152.23 61.5215 152.338 61.4258 152.552 61.4258H153.393V59.6279ZM153.393 59.0537V56.6611H151.54C150.487 56.6611 149.961 57.0326 149.961 57.7754C149.961 58.2038 150.102 58.5251 150.385 58.7393C150.667 58.9489 151.201 59.0537 151.984 59.0537H153.393ZM161.951 59.1768H158.226V61.4258H158.875C159.13 61.4258 159.258 61.5215 159.258 61.7129C159.258 61.9043 159.13 62 158.875 62H157.002C156.747 62 156.619 61.9043 156.619 61.7129C156.619 61.5215 156.747 61.4258 157.002 61.4258H157.651V56.6611H157.207C156.952 56.6611 156.824 56.5654 156.824 56.374C156.824 56.1781 156.952 56.0801 157.207 56.0801H158.67C158.925 56.0801 159.053 56.1781 159.053 56.374C159.053 56.5654 158.925 56.6611 158.67 56.6611H158.226V58.5957H161.951V56.6611H161.514C161.254 56.6611 161.124 56.5654 161.124 56.374C161.124 56.1781 161.254 56.0801 161.514 56.0801H162.97C163.225 56.0801 163.353 56.1781 163.353 56.374C163.353 56.5654 163.225 56.6611 162.97 56.6611H162.525V61.4258H163.175C163.43 61.4258 163.558 61.5215 163.558 61.7129C163.558 61.9043 163.43 62 163.175 62H161.302C161.047 62 160.919 61.9043 160.919 61.7129C160.919 61.5215 161.047 61.4258 161.302 61.4258H161.951V59.1768ZM166.442 62H165.075C164.82 62 164.692 61.9043 164.692 61.7129C164.692 61.5215 164.82 61.4258 165.075 61.4258H165.766V56.6611H165.075C164.82 56.6611 164.692 56.5654 164.692 56.374C164.692 56.1781 164.82 56.0801 165.075 56.0801H167.112C167.368 56.0801 167.495 56.1781 167.495 56.374C167.495 56.5654 167.368 56.6611 167.112 56.6611H166.34V61.1729L170.476 56.0801H171.918C172.173 56.0801 172.301 56.1781 172.301 56.374C172.301 56.5654 172.173 56.6611 171.918 56.6611H171.146V61.4258H171.918C172.173 61.4258 172.301 61.5215 172.301 61.7129C172.301 61.9043 172.173 62 171.918 62H169.799C169.544 62 169.416 61.9043 169.416 61.7129C169.416 61.5215 169.544 61.4258 169.799 61.4258H170.571V56.9209L166.442 62ZM179.479 61.4258V56.6611H179.157C178.902 56.6611 178.774 56.5654 178.774 56.374C178.774 56.1781 178.902 56.0801 179.157 56.0801H180.367C180.627 56.0801 180.757 56.1781 180.757 56.374C180.757 56.5654 180.627 56.6611 180.367 56.6611H180.053V61.4258H180.49C180.75 61.4258 180.88 61.5215 180.88 61.7129C180.88 61.9043 180.75 62 180.49 62H173.312C173.057 62 172.93 61.9043 172.93 61.7129C172.93 61.5215 173.057 61.4258 173.312 61.4258H173.757V56.6611H173.436C173.18 56.6611 173.053 56.5654 173.053 56.374C173.053 56.1781 173.18 56.0801 173.436 56.0801H174.646C174.905 56.0801 175.035 56.1781 175.035 56.374C175.035 56.5654 174.905 56.6611 174.646 56.6611H174.331V61.4258H176.614V56.6611H176.3C176.045 56.6611 175.917 56.5654 175.917 56.374C175.917 56.1781 176.045 56.0801 176.3 56.0801H177.51C177.765 56.0801 177.893 56.1781 177.893 56.374C177.893 56.5654 177.765 56.6611 177.51 56.6611H177.195V61.4258H179.479ZM188.044 56.6611C187.702 56.6611 187.451 56.7113 187.292 56.8115C187.132 56.9072 186.861 57.1898 186.479 57.6592C185.995 58.2516 185.631 58.623 185.385 58.7734C185.604 58.8281 185.806 58.9147 185.993 59.0332C186.185 59.1517 186.481 59.4958 186.882 60.0654L187.839 61.4258H188.646C188.965 61.4258 189.124 61.5215 189.124 61.7129C189.124 61.9043 188.965 62 188.646 62H187.839C187.606 62 187.451 61.9408 187.374 61.8223C187.36 61.7949 187.338 61.7585 187.306 61.7129L186.335 60.2773C186.007 59.7897 185.679 59.473 185.351 59.3271C185.022 59.1813 184.61 59.1084 184.113 59.1084H183.689V61.4258H184.387C184.706 61.4258 184.865 61.5215 184.865 61.7129C184.865 61.9043 184.706 62 184.387 62H182.411C182.092 62 181.933 61.9043 181.933 61.7129C181.933 61.5215 182.092 61.4258 182.411 61.4258H183.108V56.6611H182.411C182.092 56.6611 181.933 56.5654 181.933 56.374C181.933 56.1781 182.092 56.0801 182.411 56.0801H184.387C184.706 56.0801 184.865 56.1781 184.865 56.374C184.865 56.5654 184.706 56.6611 184.387 56.6611H183.689V58.5342H184.113C184.482 58.5342 184.765 58.4795 184.961 58.3701C185.157 58.2607 185.417 58.0078 185.74 57.6113C186.301 56.9277 186.704 56.5016 186.95 56.333C187.196 56.1644 187.565 56.0801 188.058 56.0801C188.29 56.0801 188.44 56.1074 188.509 56.1621C188.582 56.2168 188.618 56.3512 188.618 56.5654V57.3516C188.618 57.625 188.52 57.7617 188.324 57.7617C188.137 57.7617 188.044 57.641 188.044 57.3994V56.6611ZM196.931 59.0537C196.931 59.9287 196.616 60.6761 195.987 61.2959C195.363 61.9157 194.609 62.2256 193.725 62.2256C192.831 62.2256 192.073 61.9157 191.448 61.2959C190.824 60.6715 190.512 59.9242 190.512 59.0537C190.512 58.1787 190.824 57.4313 191.448 56.8115C192.073 56.1872 192.831 55.875 193.725 55.875C194.609 55.875 195.363 56.1849 195.987 56.8047C196.616 57.4245 196.931 58.1742 196.931 59.0537ZM196.35 59.0537C196.35 58.3337 196.092 57.7207 195.577 57.2148C195.067 56.709 194.447 56.4561 193.718 56.4561C192.989 56.4561 192.367 56.7113 191.852 57.2217C191.341 57.7275 191.086 58.3382 191.086 59.0537C191.086 59.7646 191.341 60.3753 191.852 60.8857C192.367 61.3962 192.989 61.6514 193.718 61.6514C194.447 61.6514 195.067 61.3984 195.577 60.8926C196.092 60.3822 196.35 59.7692 196.35 59.0537ZM199.925 61.4258V56.6611H199.152C198.897 56.6611 198.77 56.5654 198.77 56.374C198.77 56.1781 198.897 56.0801 199.152 56.0801H202.27C203.824 56.0801 204.601 56.5723 204.601 57.5566C204.601 58.1719 204.2 58.5661 203.397 58.7393C204.605 58.8988 205.209 59.4229 205.209 60.3115C205.209 61.4372 204.457 62 202.953 62H199.152C198.897 62 198.77 61.9043 198.77 61.7129C198.77 61.5215 198.897 61.4258 199.152 61.4258H199.925ZM200.499 58.4795H202.037C203.363 58.4795 204.026 58.1605 204.026 57.5225C204.026 57.2536 203.915 57.0439 203.691 56.8936C203.468 56.7386 202.996 56.6611 202.276 56.6611H200.499V58.4795ZM200.499 61.4258H202.905C204.054 61.4258 204.628 61.0566 204.628 60.3184C204.628 59.9583 204.482 59.6576 204.19 59.416C203.899 59.1745 203.192 59.0537 202.071 59.0537H200.499V61.4258ZM212.188 62V61.1729C211.354 61.8747 210.464 62.2256 209.516 62.2256C208.827 62.2256 208.29 62.0524 207.902 61.7061C207.515 61.3551 207.321 60.9268 207.321 60.4209C207.321 59.8649 207.576 59.3796 208.087 58.9648C208.597 58.5501 209.342 58.3428 210.322 58.3428C210.587 58.3428 210.874 58.361 211.184 58.3975C211.493 58.4294 211.828 58.4818 212.188 58.5547V57.625C212.188 57.3105 212.043 57.0371 211.751 56.8047C211.459 56.5723 211.022 56.4561 210.438 56.4561C209.992 56.4561 209.365 56.5859 208.559 56.8457C208.413 56.8913 208.319 56.9141 208.278 56.9141C208.205 56.9141 208.142 56.8867 208.087 56.832C208.037 56.7773 208.012 56.709 208.012 56.627C208.012 56.5495 208.035 56.488 208.08 56.4424C208.144 56.374 208.401 56.2806 208.853 56.1621C209.563 55.9707 210.101 55.875 210.466 55.875C211.19 55.875 211.756 56.055 212.161 56.415C212.567 56.7705 212.77 57.1738 212.77 57.625V61.4258H213.535C213.676 61.4258 213.777 61.4531 213.836 61.5078C213.895 61.5579 213.925 61.6263 213.925 61.7129C213.925 61.7949 213.895 61.8633 213.836 61.918C213.777 61.9727 213.676 62 213.535 62H212.188ZM212.188 59.1426C211.92 59.0651 211.635 59.0081 211.334 58.9717C211.033 58.9352 210.716 58.917 210.384 58.917C209.55 58.917 208.898 59.097 208.429 59.457C208.073 59.7259 207.896 60.0472 207.896 60.4209C207.896 60.7673 208.03 61.0589 208.299 61.2959C208.572 61.5329 208.969 61.6514 209.488 61.6514C209.985 61.6514 210.445 61.5534 210.869 61.3574C211.298 61.1569 211.737 60.8402 212.188 60.4072V59.1426ZM217.808 59.9355H219.674L217.644 63.709C217.521 63.9368 217.372 64.0508 217.199 64.0508C217.085 64.0508 216.987 64.0098 216.905 63.9277C216.828 63.8503 216.789 63.7546 216.789 63.6406C216.789 63.5951 216.796 63.5449 216.81 63.4902L217.808 59.9355ZM224.883 61.4258H229.292V61.2002C229.292 61.0635 229.319 60.9655 229.374 60.9062C229.429 60.847 229.499 60.8174 229.586 60.8174C229.668 60.8174 229.736 60.847 229.791 60.9062C229.846 60.9655 229.873 61.0635 229.873 61.2002V62H224.322V61.1523C225.489 60.1042 226.624 59.0378 227.727 57.9531C228.242 57.4473 228.595 57.0758 228.786 56.8389C228.978 56.6019 229.107 56.3945 229.176 56.2168C229.249 56.0345 229.285 55.8522 229.285 55.6699C229.285 55.1777 229.087 54.7425 228.69 54.3643C228.294 53.986 227.815 53.7969 227.255 53.7969C226.754 53.7969 226.309 53.9404 225.922 54.2275C225.535 54.5146 225.284 54.8701 225.17 55.2939C225.143 55.4033 225.108 55.474 225.067 55.5059C225.013 55.5514 224.949 55.5742 224.876 55.5742C224.799 55.5742 224.732 55.5492 224.678 55.499C224.628 55.4443 224.603 55.3805 224.603 55.3076C224.603 55.0889 224.721 54.7926 224.958 54.4189C225.2 54.0452 225.53 53.7513 225.949 53.5371C226.373 53.3229 226.806 53.2158 227.248 53.2158C227.964 53.2158 228.579 53.4642 229.094 53.9609C229.609 54.4577 229.866 55.0205 229.866 55.6494C229.866 55.9137 229.823 56.1576 229.736 56.3809C229.65 56.5996 229.502 56.8411 229.292 57.1055C229.087 57.3652 228.715 57.7594 228.178 58.2881C226.829 59.6188 225.73 60.651 224.883 61.3848V61.4258ZM237.652 59.3271H233.879L233.106 61.4258H234.207C234.344 61.4258 234.442 61.4531 234.501 61.5078C234.56 61.5579 234.59 61.6263 234.59 61.7129C234.59 61.7949 234.56 61.8633 234.501 61.918C234.442 61.9727 234.344 62 234.207 62H232.061C231.924 62 231.826 61.9727 231.767 61.918C231.707 61.8633 231.678 61.7949 231.678 61.7129C231.678 61.6263 231.707 61.5579 231.767 61.5078C231.826 61.4531 231.924 61.4258 232.061 61.4258H232.505L235.041 54.5762H233.346C233.209 54.5762 233.111 54.5511 233.052 54.501C232.993 54.4463 232.963 54.3757 232.963 54.2891C232.963 54.2025 232.993 54.1341 233.052 54.084C233.111 54.0293 233.209 54.002 233.346 54.002H236.237L239.04 61.4258H239.484C239.621 61.4258 239.719 61.4531 239.778 61.5078C239.838 61.5579 239.867 61.6263 239.867 61.7129C239.867 61.7949 239.838 61.8633 239.778 61.918C239.719 61.9727 239.621 62 239.484 62H237.345C237.203 62 237.103 61.9727 237.044 61.918C236.985 61.8633 236.955 61.7949 236.955 61.7129C236.955 61.6263 236.985 61.5579 237.044 61.5078C237.103 61.4531 237.203 61.4258 237.345 61.4258H238.438L237.652 59.3271ZM237.434 58.7529L235.848 54.5762H235.636L234.098 58.7529H237.434Z" fill="#5C372B"/>
</svg>
