<svg width="40" height="40" viewBox="0 0 40 40" fill="none" xmlns="http://www.w3.org/2000/svg">
<path d="M8.02 28.2721L4.282 4.0003H2C1.46957 4.0003 0.960859 3.78959 0.585786 3.41452C0.210714 3.03945 0 2.53075 0 2.00032C0 1.46989 0.210714 0.96119 0.585786 0.58612C0.960859 0.21105 1.46957 0.000338653 2 0.000338653H5.97C6.45249 -0.00856875 6.92171 0.158502 7.29 0.470334C7.66801 0.788205 7.9146 1.23505 7.982 1.72432L8.638 6.00029H24V10.0003H9.254L11.714 26.0001H30.512L33.512 16.0002H37.688L33.916 28.5741C33.7925 28.9863 33.5394 29.3476 33.1942 29.6045C32.8491 29.8614 32.4303 30.0001 32 30.0001H10.032C9.53584 30.0092 9.05423 29.8323 8.682 29.5041C8.31937 29.1869 8.08356 28.7494 8.018 28.2721H8.02ZM16 36C16 37.0609 15.5786 38.0783 14.8284 38.8284C14.0783 39.5786 13.0609 40 12 40C10.9391 40 9.92172 39.5786 9.17157 38.8284C8.42143 38.0783 8 37.0609 8 36C8 34.9392 8.42143 33.9218 9.17157 33.1716C9.92172 32.4215 10.9391 32.0001 12 32.0001C13.0609 32.0001 14.0783 32.4215 14.8284 33.1716C15.5786 33.9218 16 34.9392 16 36ZM34 36C34 37.0609 33.5786 38.0783 32.8284 38.8284C32.0783 39.5786 31.0609 40 30 40C28.9391 40 27.9217 39.5786 27.1716 38.8284C26.4214 38.0783 26 37.0609 26 36C26 34.9392 26.4214 33.9218 27.1716 33.1716C27.9217 32.4215 28.9391 32.0001 30 32.0001C31.0609 32.0001 32.0783 32.4215 32.8284 33.1716C33.5786 33.9218 34 34.9392 34 36ZM34 0.000338653C34.5304 0.000338653 35.0391 0.21105 35.4142 0.58612C35.7893 0.96119 36 1.46989 36 2.00032V4.0003H38C38.5304 4.0003 39.0391 4.21102 39.4142 4.58609C39.7893 4.96116 40 5.46986 40 6.00029C40 6.53072 39.7893 7.03942 39.4142 7.41449C39.0391 7.78956 38.5304 8.00027 38 8.00027H36V10.0003C36 10.5307 35.7893 11.0394 35.4142 11.4145C35.0391 11.7895 34.5304 12.0002 34 12.0002C33.4696 12.0002 32.9609 11.7895 32.5858 11.4145C32.2107 11.0394 32 10.5307 32 10.0003V8.00027H30C29.4696 8.00027 28.9609 7.78956 28.5858 7.41449C28.2107 7.03942 28 6.53072 28 6.00029C28 5.46986 28.2107 4.96116 28.5858 4.58609C28.9609 4.21102 29.4696 4.0003 30 4.0003H32V2.00032C32 1.46989 32.2107 0.96119 32.5858 0.58612C32.9609 0.21105 33.4696 0.000338653 34 0.000338653Z" fill="white"/>
</svg>
