<svg width="86" height="69" viewBox="0 0 86 69" fill="none" xmlns="http://www.w3.org/2000/svg">
<path d="M36.844 65.9143C55.292 65.9143 70.247 51.9759 70.247 34.7821C70.247 17.5883 55.292 3.64993 36.844 3.64993C18.396 3.64993 3.44101 17.5883 3.44101 34.7821C3.44101 51.9759 18.396 65.9143 36.844 65.9143Z" stroke="#5C372B" stroke-width="6"/>
<path d="M68.8856 23.9395H82.5893" stroke="#5C372B" stroke-width="6"/>
<path d="M70.6682 30.7928L82.2551 30.8966" stroke="#5C372B" stroke-width="6"/>
<path d="M71.1138 39.7229L82.4779 39.8268" stroke="#5C372B" stroke-width="6"/>
<path d="M68.7742 46.7839L82.4779 46.8878" stroke="#5C372B" stroke-width="6"/>
<path d="M82.458 7.46803L82.6943 63.6381" stroke="#5C372B" stroke-width="6"/>
<path fill-rule="evenodd" clip-rule="evenodd" d="M40.5032 30.637C40.5032 30.637 31.4509 36.9971 29.5569 38.6586C27.6629 40.32 17.5801 48.3675 19.7526 50.8077C21.9252 53.2479 42.3972 32.0389 42.3972 32.0389C42.3972 32.0389 44.6812 34.0897 48.2185 32.6879C51.7559 31.286 56.3517 21.9925 54.4855 19.6042C52.6193 17.2159 41.3667 21.006 39.5562 24.7182C37.7458 28.4305 40.5032 30.637 40.5032 30.637V30.637Z" fill="#5C372B"/>
<path fill-rule="evenodd" clip-rule="evenodd" d="M34.9604 31.4158C34.9604 31.4158 42.1744 36.6856 44.1241 38.5028C46.0739 40.32 57.8836 48.7309 55.154 51.5605C52.4244 54.3901 33.15 33.0253 33.15 33.0253C33.15 33.0253 31.6181 34.7646 30.1697 34.4531C28.7213 34.1416 17.5244 24.3029 18.6663 23.3164C19.8083 22.33 25.9082 30.1438 27.3565 29.1054C28.8049 28.067 20.1704 21.7329 21.3124 20.6685C22.4544 19.6042 28.6656 27.8074 30.309 26.2499C31.9523 24.6923 22.8165 19.0331 24.4319 17.8909C26.0474 16.7486 37.0773 27.5998 36.4088 29.4948C35.7403 31.3899 34.9604 31.4158 34.9604 31.4158V31.4158Z" fill="#5C372B"/>
<path d="M26.7207 15.0308C26.7207 15.0308 30.1476 12.2774 37.4742 12.5711C44.8008 12.8648 47.3218 14.9574 47.3218 14.9574" stroke="#5C372B" stroke-width="2"/>
<path d="M24.1542 53.9781C24.1542 53.9781 30.8121 57.3546 38.1387 57.0609C45.4653 56.7672 50.4374 53.6362 50.4374 53.6362" stroke="#5C372B" stroke-width="2"/>
<path d="M15.3763 25.2369C15.3763 25.2369 14.3915 27.4763 14.0764 28.6878C13.7613 29.8994 13.4462 31.6248 13.4462 31.6248" stroke="#5C372B" stroke-width="2"/>
<path d="M13.9582 40.6561C13.9582 40.6561 14.3127 43.2994 15.1399 44.6578C15.9671 46.0161 17.5427 47.7416 17.5427 47.7416" stroke="#5C372B" stroke-width="2"/>
<path d="M56.8149 47.3745C56.8149 47.3745 58.5087 45.649 59.2965 44.1071C60.0843 42.5652 60.4782 40.4725 60.4782 40.4725" stroke="#5C372B" stroke-width="2"/>
<path d="M60.5964 31.2577C60.5964 31.2577 60.3994 29.0183 59.7692 27.6599C59.1389 26.3015 57.9178 24.2089 57.9178 24.2089" stroke="#5C372B" stroke-width="2"/>
<path d="M12.6779 37.8019C13.8778 37.8019 14.8504 36.936 14.8504 35.8679C14.8504 34.7998 13.8778 33.9339 12.6779 33.9339C11.478 33.9339 10.5054 34.7998 10.5054 35.8679C10.5054 36.936 11.478 37.8019 12.6779 37.8019Z" stroke="#5C372B" stroke-width="2"/>
<path d="M61.5323 37.711C62.7322 37.711 63.7049 36.8452 63.7049 35.7771C63.7049 34.7089 62.7322 33.8431 61.5323 33.8431C60.3325 33.8431 59.3598 34.7089 59.3598 35.7771C59.3598 36.8452 60.3325 37.711 61.5323 37.711Z" stroke="#5C372B" stroke-width="2"/>
</svg>
