<svg width="122" height="122" viewBox="0 0 122 122" fill="none" xmlns="http://www.w3.org/2000/svg">
<g clip-path="url(#clip0_408_194)">
<path d="M50.8334 83.8751L81.3334 61.0001L50.8334 38.1251V83.8751ZM61 10.1667C32.94 10.1667 10.1667 32.9401 10.1667 61.0001C10.1667 89.0601 32.94 111.833 61 111.833C89.06 111.833 111.833 89.0601 111.833 61.0001C111.833 32.9401 89.06 10.1667 61 10.1667ZM61 101.667C38.5825 101.667 20.3334 83.4176 20.3334 61.0001C20.3334 38.5826 38.5825 20.3334 61 20.3334C83.4175 20.3334 101.667 38.5826 101.667 61.0001C101.667 83.4176 83.4175 101.667 61 101.667Z" fill="white"/>
</g>
<defs>
<clipPath id="clip0_408_194">
<rect width="122" height="122" fill="white"/>
</clipPath>
</defs>
</svg>
